<svg width="21" height="20" viewBox="0 0 21 20" fill="none" xmlns="http://www.w3.org/2000/svg">
<path d="M17.2675 14.9141C16.8991 14.0414 16.3644 13.2486 15.6933 12.5801C15.0242 11.9096 14.2317 11.375 13.3593 11.0059C13.3515 11.002 13.3437 11 13.3359 10.9961C14.5527 10.1172 15.3437 8.68555 15.3437 7.07031C15.3437 4.39453 13.1757 2.22656 10.5 2.22656C7.82418 2.22656 5.65621 4.39453 5.65621 7.07031C5.65621 8.68555 6.44722 10.1172 7.66402 10.998C7.65621 11.002 7.64839 11.0039 7.64058 11.0078C6.76558 11.377 5.98043 11.9063 5.3066 12.582C4.63611 13.2511 4.10153 14.0437 3.73238 14.916C3.36973 15.77 3.17414 16.6856 3.15621 17.6133C3.15569 17.6341 3.15934 17.6549 3.16696 17.6743C3.17458 17.6937 3.18601 17.7114 3.20057 17.7263C3.21513 17.7412 3.23253 17.7531 3.25175 17.7612C3.27096 17.7693 3.29161 17.7734 3.31246 17.7734H4.48433C4.57027 17.7734 4.63863 17.7051 4.64058 17.6211C4.67964 16.1133 5.28511 14.7012 6.35543 13.6309C7.46285 12.5234 8.93355 11.9141 10.5 11.9141C12.0664 11.9141 13.5371 12.5234 14.6445 13.6309C15.7148 14.7012 16.3203 16.1133 16.3593 17.6211C16.3613 17.707 16.4296 17.7734 16.5156 17.7734H17.6875C17.7083 17.7734 17.729 17.7693 17.7482 17.7612C17.7674 17.7531 17.7848 17.7412 17.7993 17.7263C17.8139 17.7114 17.8253 17.6937 17.833 17.6743C17.8406 17.6549 17.8442 17.6341 17.8437 17.6133C17.8242 16.6797 17.6308 15.7715 17.2675 14.9141V14.9141ZM10.5 10.4297C9.60347 10.4297 8.75972 10.0801 8.12496 9.44531C7.49019 8.81055 7.14058 7.9668 7.14058 7.07031C7.14058 6.17383 7.49019 5.33008 8.12496 4.69531C8.75972 4.06055 9.60347 3.71094 10.5 3.71094C11.3964 3.71094 12.2402 4.06055 12.875 4.69531C13.5097 5.33008 13.8593 6.17383 13.8593 7.07031C13.8593 7.9668 13.5097 8.81055 12.875 9.44531C12.2402 10.0801 11.3964 10.4297 10.5 10.4297Z" fill="#0A210F"/>
</svg>
