<svg width="12" height="8" viewBox="0 0 12 8" fill="none" xmlns="http://www.w3.org/2000/svg">
<path fill-rule="evenodd" clip-rule="evenodd" d="M8.57648 0.159096L11.8494 3.61591C12.0502 3.82804 12.0502 4.17196 11.8494 4.38409L8.57648 7.8409C8.37563 8.05303 8.05001 8.05303 7.84917 7.8409C7.64832 7.62878 7.64832 7.28485 7.84917 7.07272L10.2441 4.54319L0.514285 4.54319C0.230253 4.54319 -3.75917e-07 4.29999 -3.49691e-07 4C-3.23465e-07 3.70001 0.230253 3.45681 0.514285 3.45681L10.2441 3.45681L7.84917 0.927277C7.64832 0.71515 7.64832 0.371224 7.84917 0.159096C8.05001 -0.0530311 8.37563 -0.0530311 8.57648 0.159096Z" fill="black"/>
</svg>
