<svg width="21" height="20" viewBox="0 0 21 20" fill="none" xmlns="http://www.w3.org/2000/svg">
<g clip-path="url(#clip0_33_253)">
<path d="M6.29166 4.375C4.22916 4.375 2.54166 6.0625 2.54166 8.125C2.54166 9.365 3.15228 10.4688 4.08478 11.1525C2.43666 11.97 1.29166 13.665 1.29166 15.625H2.54166C2.54166 13.5475 4.21416 11.875 6.29166 11.875C8.36916 11.875 10.0417 13.5475 10.0417 15.625H11.2917C11.2917 13.5475 12.9642 11.875 15.0417 11.875C17.1192 11.875 18.7917 13.5475 18.7917 15.625H20.0417C20.0417 13.6644 18.8967 11.97 17.2485 11.1525C17.7257 10.8048 18.1142 10.3494 18.3823 9.82336C18.6504 9.29731 18.7907 8.71544 18.7917 8.125C18.7917 6.0625 17.1042 4.375 15.0417 4.375C12.9792 4.375 11.2917 6.0625 11.2917 8.125C11.2917 9.365 11.9023 10.4688 12.8348 11.1525C11.9216 11.6015 11.1658 12.3164 10.6667 13.2031C10.1676 12.3164 9.4117 11.6015 8.49853 11.1525C8.97572 10.8048 9.36416 10.3494 9.63229 9.82336C9.90041 9.29731 10.0407 8.71544 10.0417 8.125C10.0417 6.0625 8.35416 4.375 6.29166 4.375ZM6.29166 5.625C7.68103 5.625 8.79166 6.73563 8.79166 8.125C8.79166 9.51438 7.68103 10.625 6.29166 10.625C4.90228 10.625 3.79166 9.51438 3.79166 8.125C3.79166 6.73563 4.90228 5.625 6.29166 5.625ZM15.0417 5.625C16.431 5.625 17.5417 6.73563 17.5417 8.125C17.5417 9.51438 16.431 10.625 15.0417 10.625C13.6523 10.625 12.5417 9.51438 12.5417 8.125C12.5417 6.73563 13.6523 5.625 15.0417 5.625Z" fill="#0A210F"/>
</g>
<defs>
<clipPath id="clip0_33_253">
<rect width="20" height="20" fill="white" transform="translate(0.666656)"/>
</clipPath>
</defs>
</svg>
