<svg width="21" height="20" viewBox="0 0 21 20" fill="none" xmlns="http://www.w3.org/2000/svg">
<path d="M18.8334 16.6667V10.145C18.8334 9.69128 18.7408 9.24232 18.5613 8.82563C18.3817 8.40893 18.119 8.03328 17.7892 7.72168L11.645 1.91501C11.3356 1.62245 10.9259 1.45944 10.5 1.45944C10.0742 1.45944 9.66447 1.62245 9.35502 1.91501L3.21085 7.72168C2.88104 8.03328 2.61831 8.40893 2.43877 8.82563C2.25922 9.24232 2.16664 9.69128 2.16669 10.145V16.6667C2.16669 17.1087 2.34228 17.5326 2.65484 17.8452C2.9674 18.1578 3.39133 18.3333 3.83335 18.3333H17.1667C17.6087 18.3333 18.0326 18.1578 18.3452 17.8452C18.6578 17.5326 18.8334 17.1087 18.8334 16.6667Z" stroke="#0A210F" stroke-width="1.66667" stroke-linecap="round" stroke-linejoin="round"/>
</svg>
