<svg width="36" height="36" viewBox="0 0 36 36" fill="none" xmlns="http://www.w3.org/2000/svg">
<g clip-path="url(#clip0_54_1890)">
<path d="M17.5832 35.9655C27.2941 35.9655 35.1663 27.9144 35.1663 17.9828C35.1663 8.05116 27.2941 0 17.5832 0C7.87225 0 0 8.05116 0 17.9828C0 27.9144 7.87225 35.9655 17.5832 35.9655Z" fill="#F7F0F0"/>
<path d="M3.67127 14.9297C4.9995 14.943 5.79644 15.982 7.04232 16.3151C7.69661 16.4844 8.3789 16.5153 9.04573 16.4056C9.71256 16.296 10.3493 16.0483 10.9155 15.6783C12.0099 14.9537 12.8759 14.2157 14.2599 14.8791C15.4899 15.4625 16.3054 16.2112 17.7771 16.1525C19.1664 16.1099 20.0032 15.4785 21.1057 14.7566C22.3781 13.928 23.3397 14.4395 24.4926 15.1135C25.0884 15.4756 25.7537 15.7074 26.4449 15.7937C27.1362 15.88 27.8378 15.8189 28.5039 15.6144C29.7073 15.2361 30.4803 14.0825 31.7714 13.984C33.2962 13.8641 33.3095 11.4664 31.7714 11.5863C30.2917 11.7008 29.5399 12.3349 28.3366 13.0542C27.0083 13.8534 26.0918 13.2087 24.9442 12.556C24.3587 12.2192 23.7103 12.0068 23.0394 11.9321C22.3685 11.8574 21.6895 11.922 21.0446 12.1217C19.8571 12.4974 19.0575 13.6989 17.7771 13.7548C16.4967 13.8108 15.6971 12.7585 14.5468 12.4228C13.8952 12.2269 13.2099 12.17 12.5351 12.2558C11.8602 12.3416 11.2108 12.5682 10.6286 12.921C9.48627 13.643 8.62026 14.4901 7.17515 13.8055C5.91598 13.206 5.15092 12.548 3.65798 12.532C2.11989 12.532 2.11723 14.9297 3.65798 14.9297H3.67127Z" fill="#051007"/>
<path d="M2.97257 21.646C4.35128 21.6807 5.18009 22.7943 6.46317 23.1513C7.13297 23.3307 7.83246 23.3699 8.51803 23.2663C9.20359 23.1627 9.86053 22.9186 10.4479 22.5492C11.5928 21.8165 12.573 21.028 13.9836 21.7899C15.2162 22.4533 16.1088 23.1832 17.5938 23.1566C19.0309 23.1326 19.8996 22.4826 21.0472 21.7633C22.394 20.9241 23.4167 21.4782 24.6068 22.2162C25.2147 22.5994 25.8969 22.8487 26.6082 22.9474C27.3194 23.0462 28.0435 22.9921 28.7323 22.7889C29.9995 22.4053 30.807 21.2384 32.1671 21.1558C33.6973 21.0626 33.7079 18.6649 32.1671 18.7581C30.6264 18.8514 29.8348 19.4908 28.5995 20.2261C27.2181 21.0493 26.2087 20.322 25.0398 19.6266C24.4414 19.2701 23.7759 19.0415 23.0851 18.9553C22.3943 18.8691 21.6932 18.9272 21.0259 19.1258C19.7827 19.5041 18.9379 20.7243 17.5911 20.7589C16.2443 20.7935 15.4473 19.6719 14.2466 19.3016C13.581 19.0977 12.8804 19.0351 12.1893 19.1176C11.4983 19.2002 10.8319 19.4262 10.2327 19.7812C9.03994 20.5111 8.05439 21.4089 6.58271 20.615C5.31823 19.933 4.49738 19.283 2.97257 19.2483C1.44776 19.2137 1.43448 21.6034 2.97257 21.646V21.646Z" fill="#051007"/>
<path d="M17.5831 9.92378C19.6737 9.92378 21.3685 8.22409 21.3685 6.12742C21.3685 4.03074 19.6737 2.33105 17.5831 2.33105C15.4924 2.33105 13.7976 4.03074 13.7976 6.12742C13.7976 8.22409 15.4924 9.92378 17.5831 9.92378Z" fill="#051007"/>
<path d="M17.7506 32.5955C19.8412 32.5955 21.536 30.8958 21.536 28.7992C21.536 26.7025 19.8412 25.0028 17.7506 25.0028C15.6599 25.0028 13.9651 26.7025 13.9651 28.7992C13.9651 30.8958 15.6599 32.5955 17.7506 32.5955Z" fill="#051007"/>
</g>
<defs>
<clipPath id="clip0_54_1890">
<rect width="35.1663" height="35.9655" fill="white"/>
</clipPath>
</defs>
</svg>
