<svg width="220" height="44" viewBox="0 0 220 44" fill="none" xmlns="http://www.w3.org/2000/svg">
<path d="M86.5609 32.2672L77.9747 0.0689697H71.7803L63.1941 32.2672L53.5653 0.0689697H46.8804L60.3116 43H66.3833L74.9082 11.5377L83.3717 43H89.4434L102.875 0.0689697H96.1897L86.5609 32.2672Z" fill="#F7F0F0"/>
<path d="M129.64 27.6675C129.64 17.0574 122.649 12.0283 114.553 11.967C106.458 11.9057 99.466 17.0574 99.466 27.6675C99.466 38.2776 106.458 43.368 114.553 43.368C122.649 43.368 129.64 38.2776 129.64 27.6675ZM123.814 27.6675C123.814 35.1497 119.521 38.2776 114.553 38.2776C109.585 38.2776 105.292 35.1497 105.292 27.6675C105.292 20.1852 109.585 16.9961 114.553 17.0574C119.521 17.1187 123.814 20.1852 123.814 27.6675Z" fill="#F7F0F0"/>
<path d="M161.923 27.6675C161.923 17.0574 154.931 12.0283 146.835 11.967C138.74 11.9057 131.748 17.0574 131.748 27.6675C131.748 38.2776 138.74 43.368 146.835 43.368C154.931 43.368 161.923 38.2776 161.923 27.6675ZM156.096 27.6675C156.096 35.1497 151.803 38.2776 146.835 38.2776C141.868 38.2776 137.574 35.1497 137.574 27.6675C137.574 20.1852 141.868 16.9961 146.835 17.0574C151.803 17.1187 156.096 20.1852 156.096 27.6675Z" fill="#F7F0F0"/>
<path d="M170.095 33.4938C170.647 36.867 173.713 38.4616 177.148 38.4616C180.705 38.4616 184.139 36.867 184.139 33.1872C184.139 26.3182 164.82 34.1071 164.82 21.2278C164.82 12.3963 173.897 11.9057 177.148 11.9057C180.214 11.9057 188.064 12.335 189.414 19.1426L183.894 20.7372C183.158 17.548 180.582 16.4441 177.148 16.4441C173.652 16.4441 170.831 17.6707 170.831 21.2278C170.831 28.3421 190.15 20.1239 190.15 33.1872C190.15 42.5707 180.521 43.368 177.148 43.368C174.081 43.368 165.25 42.632 164.268 34.7204L170.095 33.4938Z" fill="#F7F0F0"/>
<path d="M211.115 11.8443C206.454 11.8443 201.977 14.2975 199.462 20.0012V0.0689697H193.391V43H199.462V31.5313C199.462 17.4867 206.209 16.9347 208.846 16.9347C212.709 16.9347 213.629 21.2278 213.629 25.7049V43H219.762V25.7049C219.762 19.9399 219.701 11.8443 211.115 11.8443Z" fill="#F7F0F0"/>
<g clip-path="url(#clip0_54_1888)">
<path d="M17.5832 39.9655C27.2941 39.9655 35.1663 31.9144 35.1663 21.9828C35.1663 12.0512 27.2941 4 17.5832 4C7.87225 4 0 12.0512 0 21.9828C0 31.9144 7.87225 39.9655 17.5832 39.9655Z" fill="#F7F0F0"/>
<path d="M3.67125 18.9297C4.99948 18.943 5.79642 19.982 7.0423 20.3151C7.69659 20.4844 8.37888 20.5153 9.0457 20.4056C9.71253 20.296 10.3493 20.0483 10.9154 19.6783C12.0099 18.9537 12.8759 18.2157 14.2599 18.8791C15.4899 19.4625 16.3054 20.2112 17.7771 20.1525C19.1664 20.1099 20.0032 19.4785 21.1056 18.7566C22.3781 17.928 23.3397 18.4395 24.4926 19.1135C25.0884 19.4756 25.7537 19.7074 26.4449 19.7937C27.1362 19.88 27.8378 19.8189 28.5039 19.6144C29.7073 19.2361 30.4803 18.0825 31.7713 17.984C33.2962 17.8641 33.3094 15.4664 31.7713 15.5863C30.2917 15.7008 29.5399 16.3349 28.3365 17.0542C27.0083 17.8534 26.0918 17.2087 24.9442 16.556C24.3587 16.2192 23.7103 16.0068 23.0394 15.9321C22.3685 15.8574 21.6895 15.922 21.0445 16.1217C19.8571 16.4974 19.0575 17.6989 17.7771 17.7548C16.4967 17.8108 15.6971 16.7585 14.5468 16.4228C13.8952 16.2269 13.2099 16.17 12.5351 16.2558C11.8602 16.3416 11.2108 16.5682 10.6285 16.921C9.48625 17.643 8.62024 18.4901 7.17512 17.8055C5.91596 17.206 5.1509 16.548 3.65796 16.532C2.11987 16.532 2.11721 18.9297 3.65796 18.9297H3.67125Z" fill="#051007"/>
<path d="M2.97262 25.646C4.35133 25.6807 5.18015 26.7943 6.46322 27.1513C7.13302 27.3307 7.83252 27.3699 8.51808 27.2663C9.20365 27.1627 9.86058 26.9186 10.4479 26.5492C11.5929 25.8165 12.5731 25.028 13.9837 25.7899C15.2163 26.4533 16.1088 27.1832 17.5938 27.1566C19.031 27.1326 19.8996 26.4826 21.0472 25.7633C22.394 24.9241 23.4168 25.4782 24.6069 26.2162C25.2148 26.5994 25.897 26.8487 26.6082 26.9474C27.3195 27.0462 28.0435 26.9921 28.7324 26.7889C29.9995 26.4053 30.8071 25.2384 32.1672 25.1558C33.6973 25.0626 33.7079 22.6649 32.1672 22.7581C30.6264 22.8514 29.8348 23.4908 28.5996 24.2261C27.2182 25.0493 26.2087 24.322 25.0399 23.6266C24.4414 23.2701 23.7759 23.0415 23.0851 22.9553C22.3944 22.8691 21.6933 22.9272 21.026 23.1258C19.7827 23.5041 18.938 24.7243 17.5912 24.7589C16.2443 24.7935 15.4474 23.6719 14.2467 23.3016C13.5811 23.0977 12.8804 23.0351 12.1894 23.1176C11.4983 23.2002 10.832 23.4262 10.2327 23.7812C9.03999 24.5111 8.05444 25.4089 6.58276 24.615C5.31828 23.933 4.49743 23.283 2.97262 23.2483C1.44781 23.2137 1.43453 25.6034 2.97262 25.646V25.646Z" fill="#051007"/>
<path d="M17.5831 13.9238C19.6738 13.9238 21.3686 12.2241 21.3686 10.1274C21.3686 8.03074 19.6738 6.33105 17.5831 6.33105C15.4925 6.33105 13.7977 8.03074 13.7977 10.1274C13.7977 12.2241 15.4925 13.9238 17.5831 13.9238Z" fill="#051007"/>
<path d="M17.7505 36.5955C19.8412 36.5955 21.536 34.8958 21.536 32.7992C21.536 30.7025 19.8412 29.0028 17.7505 29.0028C15.6599 29.0028 13.9651 30.7025 13.9651 32.7992C13.9651 34.8958 15.6599 36.5955 17.7505 36.5955Z" fill="#051007"/>
</g>
<defs>
<clipPath id="clip0_54_1888">
<rect width="35.1663" height="35.9655" fill="white" transform="translate(0 4)"/>
</clipPath>
</defs>
</svg>
