<svg width="21" height="20" viewBox="0 0 21 20" fill="none" xmlns="http://www.w3.org/2000/svg">
<path d="M17.8333 9.99999V12.5C17.8333 13.8261 17.3065 15.0978 16.3689 16.0355C15.4312 16.9732 14.1594 17.5 12.8333 17.5H7.83333C6.50725 17.5 5.23548 16.9732 4.29779 16.0355C3.36011 15.0978 2.83333 13.8261 2.83333 12.5V7.49999C2.83333 6.17391 3.36011 4.90214 4.29779 3.96446C5.23548 3.02677 6.50725 2.49999 7.83333 2.49999H10.3333M16.1667 6.66666C16.8297 6.66666 17.4656 6.40326 17.9344 5.93442C18.4033 5.46558 18.6667 4.8297 18.6667 4.16666C18.6667 3.50362 18.4033 2.86773 17.9344 2.39889C17.4656 1.93005 16.8297 1.66666 16.1667 1.66666C15.5036 1.66666 14.8677 1.93005 14.3989 2.39889C13.9301 2.86773 13.6667 3.50362 13.6667 4.16666C13.6667 4.8297 13.9301 5.46558 14.3989 5.93442C14.8677 6.40326 15.5036 6.66666 16.1667 6.66666Z" stroke="#0A210F" stroke-width="1.25" stroke-linecap="round" stroke-linejoin="round"/>
</svg>
