<svg width="32" height="32" viewBox="0 0 32 32" fill="none" xmlns="http://www.w3.org/2000/svg">
<path d="M20 26.6667H24C24.7073 26.6667 25.3856 26.3857 25.8857 25.8856C26.3857 25.3855 26.6667 24.7072 26.6667 24V20C26.6667 19.6464 26.8072 19.3072 27.0572 19.0572C27.3073 18.8071 27.6464 18.6667 28 18.6667C28.3537 18.6667 28.6928 18.8071 28.9428 19.0572C29.1929 19.3072 29.3334 19.6464 29.3334 20V24C29.3334 25.4145 28.7715 26.771 27.7713 27.7712C26.7711 28.7714 25.4145 29.3333 24 29.3333H8.00004C6.58555 29.3333 5.22899 28.7714 4.2288 27.7712C3.22861 26.771 2.6667 25.4145 2.6667 24V20C2.6667 19.6464 2.80718 19.3072 3.05723 19.0572C3.30728 18.8071 3.64641 18.6667 4.00004 18.6667C4.35366 18.6667 4.6928 18.8071 4.94284 19.0572C5.19289 19.3072 5.33337 19.6464 5.33337 20V24C5.33337 24.7072 5.61432 25.3855 6.11442 25.8856C6.61451 26.3857 7.29279 26.6667 8.00004 26.6667H12C12.3537 26.6667 12.6928 26.8071 12.9428 27.0572C13.1929 27.3072 13.3334 27.6464 13.3334 28C13.3334 28.3536 13.1929 28.6927 12.9428 28.9428C12.6928 29.1928 12.3537 29.3333 12 29.3333H20C19.6464 29.3333 19.3073 29.1928 19.0572 28.9428C18.8072 28.6927 18.6667 28.3536 18.6667 28C18.6667 27.6464 18.8072 27.3072 19.0572 27.0572C19.3073 26.8071 19.6464 26.6667 20 26.6667ZM5.33337 12C5.33337 12.3536 5.19289 12.6927 4.94284 12.9428C4.6928 13.1928 4.35366 13.3333 4.00004 13.3333C3.64641 13.3333 3.30728 13.1928 3.05723 12.9428C2.80718 12.6927 2.6667 12.3536 2.6667 12V7.99999C2.6667 6.5855 3.22861 5.22895 4.2288 4.22875C5.22899 3.22856 6.58555 2.66666 8.00004 2.66666L12 2.66666C12.3537 2.66666 12.6928 2.80713 12.9428 3.05718C13.1929 3.30723 13.3334 3.64637 13.3334 3.99999C13.3334 4.35361 13.1929 4.69275 12.9428 4.9428C12.6928 5.19285 12.3537 5.33332 12 5.33332H8.00004C7.29279 5.33332 6.61451 5.61427 6.11442 6.11437C5.61432 6.61447 5.33337 7.29275 5.33337 7.99999V12ZM26.6667 12V7.99999C26.6667 7.29275 26.3857 6.61447 25.8857 6.11437C25.3856 5.61427 24.7073 5.33332 24 5.33332H20C19.6464 5.33332 19.3073 5.19285 19.0572 4.9428C18.8072 4.69275 18.6667 4.35361 18.6667 3.99999C18.6667 3.64637 18.8072 3.30723 19.0572 3.05718C19.3073 2.80713 19.6464 2.66666 20 2.66666H24C25.4145 2.66666 26.7711 3.22856 27.7713 4.22875C28.7715 5.22895 29.3334 6.5855 29.3334 7.99999V12C29.3334 12.3536 29.1929 12.6927 28.9428 12.9428C28.6928 13.1928 28.3537 13.3333 28 13.3333C27.6464 13.3333 27.3073 13.1928 27.0572 12.9428C26.8072 12.6927 26.6667 12.3536 26.6667 12Z" fill="#F7F0F0"/>
</svg>
