<svg width="24" height="24" viewBox="0 0 24 24" fill="none" xmlns="http://www.w3.org/2000/svg">
<g opacity="0.5">
<path d="M21.3188 20.0273L15.232 13.9406C16.1766 12.7195 16.6875 11.2265 16.6875 9.65621C16.6875 7.77652 15.9539 6.01402 14.6273 4.68511C13.3008 3.35621 11.5336 2.62496 9.65625 2.62496C7.77891 2.62496 6.01172 3.35855 4.68516 4.68511C3.35625 6.01168 2.625 7.77652 2.625 9.65621C2.625 11.5336 3.35859 13.3007 4.68516 14.6273C6.01172 15.9562 7.77656 16.6875 9.65625 16.6875C11.2266 16.6875 12.7172 16.1765 13.9383 15.2343L20.025 21.3187C20.0429 21.3366 20.064 21.3507 20.0874 21.3604C20.1107 21.3701 20.1357 21.375 20.1609 21.375C20.1862 21.375 20.2112 21.3701 20.2345 21.3604C20.2578 21.3507 20.279 21.3366 20.2969 21.3187L21.3188 20.2992C21.3366 20.2813 21.3508 20.2601 21.3604 20.2368C21.3701 20.2135 21.3751 20.1885 21.3751 20.1632C21.3751 20.138 21.3701 20.113 21.3604 20.0897C21.3508 20.0663 21.3366 20.0451 21.3188 20.0273ZM13.3688 13.3687C12.375 14.3601 11.0578 14.9062 9.65625 14.9062C8.25469 14.9062 6.9375 14.3601 5.94375 13.3687C4.95234 12.375 4.40625 11.0578 4.40625 9.65621C4.40625 8.25464 4.95234 6.93511 5.94375 5.94371C6.9375 4.9523 8.25469 4.40621 9.65625 4.40621C11.0578 4.40621 12.3773 4.94996 13.3688 5.94371C14.3602 6.93746 14.9063 8.25464 14.9063 9.65621C14.9063 11.0578 14.3602 12.3773 13.3688 13.3687Z" fill="#051007"/>
</g>
</svg>
