<svg width="20" height="20" viewBox="0 0 20 20" fill="none" xmlns="http://www.w3.org/2000/svg">
<path d="M9.67008 1.25C8.81676 1.25 8.125 1.94176 8.125 2.79509V3.10485C8.125 3.50024 7.90161 3.8617 7.54796 4.03852C7.14607 4.23946 6.6607 4.1607 6.34298 3.84298L6.08964 3.58964C5.48785 2.98785 4.51215 2.98785 3.91036 3.58964L3.58963 3.91037C2.98785 4.51215 2.98785 5.48785 3.58964 6.08964L3.84298 6.34298C4.1607 6.6607 4.23946 7.14607 4.03852 7.54796C3.8617 7.90161 3.50024 8.125 3.10485 8.125H2.79508C1.94176 8.125 1.25 8.81676 1.25 9.67008V10.3299C1.25 11.1832 1.94176 11.875 2.79509 11.875H3.10485C3.50024 11.875 3.8617 12.0984 4.03852 12.452C4.23946 12.8539 4.1607 13.3393 3.84298 13.657L3.58964 13.9104C2.98785 14.5122 2.98785 15.4878 3.58964 16.0896L3.91037 16.4104C4.51215 17.0122 5.48785 17.0122 6.08964 16.4104L6.34298 16.157C6.6607 15.8393 7.14607 15.7605 7.54796 15.9615C7.90161 16.1383 8.125 16.4998 8.125 16.8952V17.2049C8.125 18.0582 8.81676 18.75 9.67008 18.75H10.3299C11.1832 18.75 11.875 18.0582 11.875 17.2049V16.8952C11.875 16.4998 12.0984 16.1383 12.452 15.9615C12.8539 15.7605 13.3393 15.8393 13.657 16.157L13.9104 16.4104C14.5122 17.0122 15.4878 17.0122 16.0896 16.4104L16.4104 16.0896C17.0122 15.4878 17.0122 14.5122 16.4104 13.9104L16.157 13.657C15.8393 13.3393 15.7605 12.8539 15.9615 12.452C16.1383 12.0984 16.4998 11.875 16.8952 11.875H17.2049C18.0582 11.875 18.75 11.1832 18.75 10.3299V9.67008C18.75 8.81676 18.0582 8.125 17.2049 8.125H16.8952C16.4998 8.125 16.1383 7.90161 15.9615 7.54796C15.7605 7.14607 15.8393 6.6607 16.157 6.34298L16.4104 6.08964C17.0122 5.48785 17.0122 4.51215 16.4104 3.91036L16.0896 3.58963C15.4878 2.98785 14.5122 2.98785 13.9104 3.58964L13.657 3.84298C13.3393 4.1607 12.8539 4.23946 12.452 4.03852C12.0984 3.8617 11.875 3.50024 11.875 3.10485V2.79508C11.875 1.94176 11.1832 1.25 10.3299 1.25H9.67008Z" fill="#D7D7D7"/>
<path d="M10 12.5C11.3807 12.5 12.5 11.3807 12.5 10C12.5 8.61929 11.3807 7.5 10 7.5C8.61929 7.5 7.5 8.61929 7.5 10C7.5 11.3807 8.61929 12.5 10 12.5Z" stroke="#878787" stroke-width="1.25" stroke-linecap="round" stroke-linejoin="round"/>
</svg>
